<mxfile host="65bd71144e">
    <diagram id="Spy-s2eoWDEhUBb4-Ucy" name="Page-1">
        <mxGraphModel dx="2215" dy="855" grid="1" gridSize="10" guides="1" tooltips="1" connect="1" arrows="1" fold="1" page="1" pageScale="1" pageWidth="827" pageHeight="1169" math="0" shadow="0">
            <root>
                <mxCell id="0"/>
                <mxCell id="1" parent="0"/>
                <mxCell id="70jTGHAHT-9TZ30PXtRa-2" value="max_frames" style="text;html=1;align=center;verticalAlign=middle;resizable=0;points=[];autosize=1;strokeColor=none;fillColor=none;" parent="1" vertex="1">
                    <mxGeometry x="40" y="310" width="80" height="20" as="geometry"/>
                </mxCell>
                <mxCell id="70jTGHAHT-9TZ30PXtRa-3" value="trainSpeakerNet.py&lt;br&gt;DatasetLoader.py&lt;br&gt;SpeakerNet,py" style="text;html=1;align=center;verticalAlign=middle;resizable=0;points=[];autosize=1;strokeColor=none;fillColor=none;" parent="1" vertex="1">
                    <mxGeometry x="60" y="190" width="120" height="50" as="geometry"/>
                </mxCell>
                <mxCell id="70jTGHAHT-9TZ30PXtRa-4" value="tuneThreshold.py" style="text;html=1;align=center;verticalAlign=middle;resizable=0;points=[];autosize=1;strokeColor=none;fillColor=none;" parent="1" vertex="1">
                    <mxGeometry x="15" y="240" width="110" height="20" as="geometry"/>
                </mxCell>
                <mxCell id="70jTGHAHT-9TZ30PXtRa-5" value="--nPerSpeaker: number of utterances per speaker per batch" style="text;html=1;align=center;verticalAlign=middle;resizable=0;points=[];autosize=1;strokeColor=none;fillColor=none;" parent="1" vertex="1">
                    <mxGeometry x="-10" y="360" width="330" height="20" as="geometry"/>
                </mxCell>
                <mxCell id="70jTGHAHT-9TZ30PXtRa-8" value="" style="edgeStyle=orthogonalEdgeStyle;rounded=0;orthogonalLoop=1;jettySize=auto;html=1;" parent="1" source="70jTGHAHT-9TZ30PXtRa-6" target="70jTGHAHT-9TZ30PXtRa-7" edge="1">
                    <mxGeometry relative="1" as="geometry"/>
                </mxCell>
                <mxCell id="70jTGHAHT-9TZ30PXtRa-6" value="save_path" style="text;html=1;align=center;verticalAlign=middle;resizable=0;points=[];autosize=1;strokeColor=none;fillColor=none;" parent="1" vertex="1">
                    <mxGeometry x="80" y="530" width="70" height="20" as="geometry"/>
                </mxCell>
                <mxCell id="70jTGHAHT-9TZ30PXtRa-7" value="model_save_path" style="text;html=1;align=center;verticalAlign=middle;resizable=0;points=[];autosize=1;strokeColor=none;fillColor=none;" parent="1" vertex="1">
                    <mxGeometry x="220" y="530" width="110" height="20" as="geometry"/>
                </mxCell>
                <mxCell id="70jTGHAHT-9TZ30PXtRa-9" value="/model" style="text;html=1;align=center;verticalAlign=middle;resizable=0;points=[];autosize=1;strokeColor=none;fillColor=none;" parent="1" vertex="1">
                    <mxGeometry x="150" y="520" width="50" height="20" as="geometry"/>
                </mxCell>
                <mxCell id="70jTGHAHT-9TZ30PXtRa-12" value="&lt;div style=&quot;font-family: Consolas, &amp;quot;Courier New&amp;quot;, monospace; line-height: 19px;&quot;&gt;&lt;font style=&quot;font-size: 12px; background-color: rgb(255, 255, 255);&quot;&gt;exps/exp1&lt;/font&gt;&lt;/div&gt;" style="text;html=1;align=center;verticalAlign=middle;resizable=0;points=[];autosize=1;strokeColor=none;fillColor=none;" parent="1" vertex="1">
                    <mxGeometry x="65" y="510" width="70" height="20" as="geometry"/>
                </mxCell>
                <mxCell id="slcmuCwRzvxVLQFNK9P1-1" value="voxceleb1 test set as evaluation&amp;nbsp;" style="text;html=1;align=center;verticalAlign=middle;resizable=0;points=[];autosize=1;strokeColor=none;fillColor=none;" parent="1" vertex="1">
                    <mxGeometry x="130" y="585" width="190" height="20" as="geometry"/>
                </mxCell>
                <mxCell id="slcmuCwRzvxVLQFNK9P1-2" value="what you have to add&lt;br&gt;1. contrastive learning framework&lt;br&gt;2. joint training&amp;nbsp;" style="text;html=1;align=center;verticalAlign=middle;resizable=0;points=[];autosize=1;strokeColor=none;fillColor=none;" parent="1" vertex="1">
                    <mxGeometry x="35" y="615" width="190" height="50" as="geometry"/>
                </mxCell>
                <mxCell id="slcmuCwRzvxVLQFNK9P1-3" value="1. read the contrastive framework pdf - not much&amp;nbsp;&lt;br&gt;2. do evaluation&lt;br&gt;3. evaluate the code of 1" style="text;html=1;align=center;verticalAlign=middle;resizable=0;points=[];autosize=1;strokeColor=none;fillColor=none;" parent="1" vertex="1">
                    <mxGeometry y="750" width="280" height="50" as="geometry"/>
                </mxCell>
                <mxCell id="slcmuCwRzvxVLQFNK9P1-5" value="How you train the model" style="swimlane;" parent="1" vertex="1">
                    <mxGeometry x="170" y="1060" width="500" height="521" as="geometry"/>
                </mxCell>
                <mxCell id="slcmuCwRzvxVLQFNK9P1-11" value="" style="edgeStyle=orthogonalEdgeStyle;rounded=0;orthogonalLoop=1;jettySize=auto;html=1;" parent="slcmuCwRzvxVLQFNK9P1-5" source="slcmuCwRzvxVLQFNK9P1-8" target="slcmuCwRzvxVLQFNK9P1-9" edge="1">
                    <mxGeometry relative="1" as="geometry"/>
                </mxCell>
                <mxCell id="slcmuCwRzvxVLQFNK9P1-8" value="trainSpeakerNet.py&lt;br&gt;trainer.train_network()" style="rounded=0;whiteSpace=wrap;html=1;" parent="slcmuCwRzvxVLQFNK9P1-5" vertex="1">
                    <mxGeometry x="130" y="40" width="220" height="49" as="geometry"/>
                </mxCell>
                <mxCell id="slcmuCwRzvxVLQFNK9P1-17" style="edgeStyle=orthogonalEdgeStyle;rounded=0;orthogonalLoop=1;jettySize=auto;html=1;exitX=0.5;exitY=1;exitDx=0;exitDy=0;entryX=0.5;entryY=0;entryDx=0;entryDy=0;" parent="slcmuCwRzvxVLQFNK9P1-5" source="slcmuCwRzvxVLQFNK9P1-9" target="slcmuCwRzvxVLQFNK9P1-12" edge="1">
                    <mxGeometry relative="1" as="geometry"/>
                </mxCell>
                <mxCell id="slcmuCwRzvxVLQFNK9P1-9" value="&lt;div style=&quot;color: rgb(212, 212, 212); background-color: rgb(30, 30, 30); font-family: Consolas, &amp;quot;Courier New&amp;quot;, monospace; font-size: 14px; line-height: 19px;&quot;&gt;&lt;span style=&quot;color: #9cdcfe;&quot;&gt;nloss&lt;/span&gt;, &lt;span style=&quot;color: #9cdcfe;&quot;&gt;prec1&lt;/span&gt; = &lt;span style=&quot;color: #9cdcfe;&quot;&gt;self&lt;/span&gt;.&lt;span style=&quot;color: #9cdcfe;&quot;&gt;__model__&lt;/span&gt;(&lt;span style=&quot;color: #9cdcfe;&quot;&gt;data&lt;/span&gt;, &lt;span style=&quot;color: #9cdcfe;&quot;&gt;label&lt;/span&gt;)&lt;/div&gt;" style="rounded=0;whiteSpace=wrap;html=1;" parent="slcmuCwRzvxVLQFNK9P1-5" vertex="1">
                    <mxGeometry x="50" y="160" width="380" height="39" as="geometry"/>
                </mxCell>
                <mxCell id="slcmuCwRzvxVLQFNK9P1-12" value="ResNetSE34V2.py&lt;br&gt;&lt;div style=&quot;color: rgb(212, 212, 212); background-color: rgb(30, 30, 30); font-family: Consolas, &amp;quot;Courier New&amp;quot;, monospace; font-size: 14px; line-height: 19px;&quot;&gt;&lt;span style=&quot;color: #569cd6;&quot;&gt;class&lt;/span&gt; &lt;span style=&quot;color: #4ec9b0;&quot;&gt;SpeakerNet&amp;nbsp;&lt;/span&gt;&lt;/div&gt;&lt;div style=&quot;color: rgb(212, 212, 212); background-color: rgb(30, 30, 30); font-family: Consolas, &amp;quot;Courier New&amp;quot;, monospace; font-size: 14px; line-height: 19px;&quot;&gt;&lt;span style=&quot;color: rgb(220, 220, 170);&quot;&gt;forward()&lt;/span&gt;&lt;/div&gt;" style="rounded=0;whiteSpace=wrap;html=1;" parent="slcmuCwRzvxVLQFNK9P1-5" vertex="1">
                    <mxGeometry x="145" y="270" width="190" height="50" as="geometry"/>
                </mxCell>
                <mxCell id="slcmuCwRzvxVLQFNK9P1-16" value="model.py&lt;br&gt;&lt;span style=&quot;color: rgb(220, 220, 170); font-family: Consolas, &amp;quot;Courier New&amp;quot;, monospace; font-size: 14px; background-color: rgb(30, 30, 30);&quot;&gt;forward()&lt;/span&gt;" style="rounded=0;whiteSpace=wrap;html=1;" parent="slcmuCwRzvxVLQFNK9P1-5" vertex="1">
                    <mxGeometry x="283" y="430" width="127" height="60" as="geometry"/>
                </mxCell>
                <mxCell id="slcmuCwRzvxVLQFNK9P1-13" value="loss.py&lt;br&gt;&lt;div style=&quot;color: rgb(212, 212, 212); background-color: rgb(30, 30, 30); font-family: Consolas, &amp;quot;Courier New&amp;quot;, monospace; font-size: 14px; line-height: 19px;&quot;&gt;&lt;span style=&quot;color: #dcdcaa;&quot;&gt;forward()&lt;/span&gt;&lt;/div&gt;" style="rounded=0;whiteSpace=wrap;html=1;" parent="slcmuCwRzvxVLQFNK9P1-5" vertex="1">
                    <mxGeometry x="113" y="430" width="120" height="60" as="geometry"/>
                </mxCell>
                <mxCell id="slcmuCwRzvxVLQFNK9P1-14" style="edgeStyle=orthogonalEdgeStyle;rounded=0;orthogonalLoop=1;jettySize=auto;html=1;exitX=0.5;exitY=1;exitDx=0;exitDy=0;entryX=0.442;entryY=-0.053;entryDx=0;entryDy=0;entryPerimeter=0;" parent="slcmuCwRzvxVLQFNK9P1-5" source="slcmuCwRzvxVLQFNK9P1-12" target="slcmuCwRzvxVLQFNK9P1-13" edge="1">
                    <mxGeometry relative="1" as="geometry"/>
                </mxCell>
                <mxCell id="slcmuCwRzvxVLQFNK9P1-15" style="edgeStyle=orthogonalEdgeStyle;rounded=0;orthogonalLoop=1;jettySize=auto;html=1;exitX=0.5;exitY=1;exitDx=0;exitDy=0;entryX=0.5;entryY=0;entryDx=0;entryDy=0;" parent="slcmuCwRzvxVLQFNK9P1-5" source="slcmuCwRzvxVLQFNK9P1-12" target="slcmuCwRzvxVLQFNK9P1-16" edge="1">
                    <mxGeometry relative="1" as="geometry">
                        <mxPoint x="350" y="490" as="targetPoint"/>
                    </mxGeometry>
                </mxCell>
                <mxCell id="slcmuCwRzvxVLQFNK9P1-18" value="what is the structure of the data?" style="swimlane;" parent="1" vertex="1">
                    <mxGeometry x="90" y="1760" width="440" height="460" as="geometry"/>
                </mxCell>
                <mxCell id="slcmuCwRzvxVLQFNK9P1-41" value="" style="group" parent="slcmuCwRzvxVLQFNK9P1-18" vertex="1" connectable="0">
                    <mxGeometry x="20" y="120" width="240" height="130" as="geometry"/>
                </mxCell>
                <mxCell id="slcmuCwRzvxVLQFNK9P1-21" value="" style="rounded=0;whiteSpace=wrap;html=1;" parent="slcmuCwRzvxVLQFNK9P1-41" vertex="1">
                    <mxGeometry x="14.693877551020408" width="225.30612244897958" height="130" as="geometry"/>
                </mxCell>
                <mxCell id="slcmuCwRzvxVLQFNK9P1-20" value="&lt;div style=&quot;color: rgb(212, 212, 212); background-color: rgb(30, 30, 30); font-family: Consolas, &amp;quot;Courier New&amp;quot;, monospace; font-size: 14px; line-height: 19px;&quot;&gt;&lt;span style=&quot;color: #569cd6;&quot;&gt;class&lt;/span&gt; &lt;span style=&quot;color: #4ec9b0;&quot;&gt;train_dataset_loader&lt;/span&gt;&lt;/div&gt;" style="text;html=1;align=center;verticalAlign=middle;resizable=0;points=[];autosize=1;strokeColor=none;fillColor=none;" parent="slcmuCwRzvxVLQFNK9P1-41" vertex="1">
                    <mxGeometry x="14.693877551020408" y="13.506493506493506" width="220" height="20" as="geometry"/>
                </mxCell>
                <mxCell id="slcmuCwRzvxVLQFNK9P1-24" value="&lt;div style=&quot;color: rgb(212, 212, 212); background-color: rgb(30, 30, 30); font-family: Consolas, &amp;quot;Courier New&amp;quot;, monospace; font-size: 14px; line-height: 19px;&quot;&gt;&lt;span style=&quot;color: #dcdcaa;&quot;&gt;load_wav&lt;/span&gt;&lt;/div&gt;" style="text;html=1;strokeColor=none;fillColor=none;align=center;verticalAlign=middle;whiteSpace=wrap;rounded=0;" parent="slcmuCwRzvxVLQFNK9P1-41" vertex="1">
                    <mxGeometry x="29.387755102040817" y="38.83116883116883" width="58.775510204081634" height="25.324675324675322" as="geometry"/>
                </mxCell>
                <mxCell id="slcmuCwRzvxVLQFNK9P1-25" value="&lt;div style=&quot;color: rgb(212, 212, 212); background-color: rgb(30, 30, 30); font-family: Consolas, &amp;quot;Courier New&amp;quot;, monospace; font-size: 14px; line-height: 19px;&quot;&gt;&lt;div style=&quot;line-height: 19px;&quot;&gt;&lt;span style=&quot;color: #9cdcfe;&quot;&gt;self&lt;/span&gt;.&lt;span style=&quot;color: #9cdcfe;&quot;&gt;augment&lt;/span&gt;&lt;/div&gt;&lt;/div&gt;" style="text;html=1;strokeColor=none;fillColor=none;align=center;verticalAlign=middle;whiteSpace=wrap;rounded=0;" parent="slcmuCwRzvxVLQFNK9P1-41" vertex="1">
                    <mxGeometry x="39.183673469387756" y="64.15584415584415" width="58.775510204081634" height="25.324675324675322" as="geometry"/>
                </mxCell>
                <mxCell id="slcmuCwRzvxVLQFNK9P1-26" value="this is for every singal utterance" style="text;html=1;strokeColor=none;fillColor=none;align=center;verticalAlign=middle;whiteSpace=wrap;rounded=0;" parent="slcmuCwRzvxVLQFNK9P1-41" vertex="1">
                    <mxGeometry y="89.48051948051948" width="215.51020408163265" height="25.324675324675322" as="geometry"/>
                </mxCell>
                <mxCell id="slcmuCwRzvxVLQFNK9P1-32" value="&lt;div style=&quot;color: rgb(212, 212, 212); background-color: rgb(30, 30, 30); font-family: Consolas, &amp;quot;Courier New&amp;quot;, monospace; font-size: 14px; line-height: 19px;&quot;&gt;&lt;span style=&quot;color: #dcdcaa;&quot;&gt;load_wav&lt;/span&gt;&lt;/div&gt;" style="text;html=1;strokeColor=none;fillColor=none;align=center;verticalAlign=middle;whiteSpace=wrap;rounded=0;" parent="slcmuCwRzvxVLQFNK9P1-41" vertex="1">
                    <mxGeometry x="29.387755102040817" y="38.83116883116883" width="58.775510204081634" height="25.324675324675322" as="geometry"/>
                </mxCell>
                <mxCell id="slcmuCwRzvxVLQFNK9P1-33" value="&lt;div style=&quot;color: rgb(212, 212, 212); background-color: rgb(30, 30, 30); font-family: Consolas, &amp;quot;Courier New&amp;quot;, monospace; font-size: 14px; line-height: 19px;&quot;&gt;&lt;div style=&quot;line-height: 19px;&quot;&gt;&lt;span style=&quot;color: #9cdcfe;&quot;&gt;self&lt;/span&gt;.&lt;span style=&quot;color: #9cdcfe;&quot;&gt;augment&lt;/span&gt;&lt;/div&gt;&lt;/div&gt;" style="text;html=1;strokeColor=none;fillColor=none;align=center;verticalAlign=middle;whiteSpace=wrap;rounded=0;" parent="slcmuCwRzvxVLQFNK9P1-41" vertex="1">
                    <mxGeometry x="39.183673469387756" y="64.15584415584415" width="58.775510204081634" height="25.324675324675322" as="geometry"/>
                </mxCell>
                <mxCell id="slcmuCwRzvxVLQFNK9P1-34" value="this is for every singal utterance" style="text;html=1;strokeColor=none;fillColor=none;align=center;verticalAlign=middle;whiteSpace=wrap;rounded=0;" parent="slcmuCwRzvxVLQFNK9P1-41" vertex="1">
                    <mxGeometry y="89.48051948051948" width="215.51020408163265" height="25.324675324675322" as="geometry"/>
                </mxCell>
                <mxCell id="slcmuCwRzvxVLQFNK9P1-35" value="&lt;div style=&quot;color: rgb(212, 212, 212); background-color: rgb(30, 30, 30); font-family: Consolas, &amp;quot;Courier New&amp;quot;, monospace; font-size: 14px; line-height: 19px;&quot;&gt;&lt;span style=&quot;color: #569cd6;&quot;&gt;class&lt;/span&gt; &lt;span style=&quot;color: #4ec9b0;&quot;&gt;train_dataset_loader&lt;/span&gt;&lt;/div&gt;" style="text;html=1;align=center;verticalAlign=middle;resizable=0;points=[];autosize=1;strokeColor=none;fillColor=none;" parent="slcmuCwRzvxVLQFNK9P1-41" vertex="1">
                    <mxGeometry x="14.693877551020408" y="13.506493506493506" width="220" height="20" as="geometry"/>
                </mxCell>
                <mxCell id="slcmuCwRzvxVLQFNK9P1-36" value="this is for every singal utterance" style="text;html=1;strokeColor=none;fillColor=none;align=center;verticalAlign=middle;whiteSpace=wrap;rounded=0;" parent="slcmuCwRzvxVLQFNK9P1-41" vertex="1">
                    <mxGeometry y="89.48051948051948" width="215.51020408163265" height="25.324675324675322" as="geometry"/>
                </mxCell>
                <mxCell id="slcmuCwRzvxVLQFNK9P1-37" value="&lt;div style=&quot;color: rgb(212, 212, 212); background-color: rgb(30, 30, 30); font-family: Consolas, &amp;quot;Courier New&amp;quot;, monospace; font-size: 14px; line-height: 19px;&quot;&gt;&lt;div style=&quot;line-height: 19px;&quot;&gt;&lt;span style=&quot;color: #9cdcfe;&quot;&gt;self&lt;/span&gt;.&lt;span style=&quot;color: #9cdcfe;&quot;&gt;augment&lt;/span&gt;&lt;/div&gt;&lt;/div&gt;" style="text;html=1;strokeColor=none;fillColor=none;align=center;verticalAlign=middle;whiteSpace=wrap;rounded=0;" parent="slcmuCwRzvxVLQFNK9P1-41" vertex="1">
                    <mxGeometry x="39.183673469387756" y="64.15584415584415" width="58.775510204081634" height="25.324675324675322" as="geometry"/>
                </mxCell>
                <mxCell id="slcmuCwRzvxVLQFNK9P1-38" value="&lt;div style=&quot;color: rgb(212, 212, 212); background-color: rgb(30, 30, 30); font-family: Consolas, &amp;quot;Courier New&amp;quot;, monospace; font-size: 14px; line-height: 19px;&quot;&gt;&lt;span style=&quot;color: #dcdcaa;&quot;&gt;load_wav&lt;/span&gt;&lt;/div&gt;" style="text;html=1;strokeColor=none;fillColor=none;align=center;verticalAlign=middle;whiteSpace=wrap;rounded=0;" parent="slcmuCwRzvxVLQFNK9P1-41" vertex="1">
                    <mxGeometry x="29.387755102040817" y="38.83116883116883" width="58.775510204081634" height="25.324675324675322" as="geometry"/>
                </mxCell>
                <mxCell id="slcmuCwRzvxVLQFNK9P1-39" value="&lt;div style=&quot;color: rgb(212, 212, 212); background-color: rgb(30, 30, 30); font-family: Consolas, &amp;quot;Courier New&amp;quot;, monospace; font-size: 14px; line-height: 19px;&quot;&gt;&lt;span style=&quot;color: #569cd6;&quot;&gt;class&lt;/span&gt; &lt;span style=&quot;color: #4ec9b0;&quot;&gt;train_dataset_loader&lt;/span&gt;&lt;/div&gt;" style="text;html=1;align=center;verticalAlign=middle;resizable=0;points=[];autosize=1;strokeColor=none;fillColor=none;" parent="slcmuCwRzvxVLQFNK9P1-41" vertex="1">
                    <mxGeometry x="14.693877551020408" y="13.506493506493506" width="220" height="20" as="geometry"/>
                </mxCell>
                <mxCell id="slcmuCwRzvxVLQFNK9P1-29" value="label: encoding of the speakers" style="whiteSpace=wrap;html=1;" parent="slcmuCwRzvxVLQFNK9P1-18" vertex="1">
                    <mxGeometry x="280" y="120" width="120" height="60" as="geometry"/>
                </mxCell>
                <mxCell id="slcmuCwRzvxVLQFNK9P1-42" value="get a batch of augmented signals&amp;nbsp;&lt;br&gt;" style="rounded=0;whiteSpace=wrap;html=1;" parent="slcmuCwRzvxVLQFNK9P1-18" vertex="1">
                    <mxGeometry x="34.69387755102041" y="300" width="225.30612244897958" height="130" as="geometry"/>
                </mxCell>
                <mxCell id="slcmuCwRzvxVLQFNK9P1-43" value="" style="edgeStyle=orthogonalEdgeStyle;rounded=0;orthogonalLoop=1;jettySize=auto;html=1;" parent="slcmuCwRzvxVLQFNK9P1-18" source="slcmuCwRzvxVLQFNK9P1-21" target="slcmuCwRzvxVLQFNK9P1-42" edge="1">
                    <mxGeometry relative="1" as="geometry"/>
                </mxCell>
                <mxCell id="slcmuCwRzvxVLQFNK9P1-44" value="todos on repo voxceleb trainer" style="swimlane;" parent="1" vertex="1">
                    <mxGeometry x="600" y="1860" width="210" height="90" as="geometry"/>
                </mxCell>
                <mxCell id="slcmuCwRzvxVLQFNK9P1-45" value="1. change the loader to contrastive&lt;br&gt;2. implement contrastive loss&amp;nbsp;&lt;br&gt;3. retrain another TDNN model" style="text;html=1;align=center;verticalAlign=middle;resizable=0;points=[];autosize=1;strokeColor=none;fillColor=none;" parent="slcmuCwRzvxVLQFNK9P1-44" vertex="1">
                    <mxGeometry x="5" y="33.51000000000002" width="200" height="50" as="geometry"/>
                </mxCell>
                <mxCell id="4" value="" style="edgeStyle=none;html=1;" parent="1" source="2" edge="1">
                    <mxGeometry relative="1" as="geometry">
                        <mxPoint x="-610" y="840" as="targetPoint"/>
                    </mxGeometry>
                </mxCell>
                <mxCell id="2" value="&lt;font color=&quot;#00cc00&quot; style=&quot;font-size: 20px&quot;&gt;TODOs:&lt;br&gt;1. train 2 models of cnceleb - test the ability of encoders&amp;nbsp;&amp;nbsp;&lt;br&gt;2. train 2 models of SSDA - self supervised learning + domain adaptation&lt;br&gt;&lt;/font&gt;" style="text;html=1;align=center;verticalAlign=middle;resizable=0;points=[];autosize=1;strokeColor=none;fillColor=none;" parent="1" vertex="1">
                    <mxGeometry x="-940" y="670" width="660" height="60" as="geometry"/>
                </mxCell>
                <mxCell id="5" value="" style="shape=table;html=1;whiteSpace=wrap;startSize=0;container=1;collapsible=0;childLayout=tableLayout;" parent="1" vertex="1">
                    <mxGeometry x="-1020" y="870" width="570" height="150" as="geometry"/>
                </mxCell>
                <mxCell id="6" value="" style="shape=partialRectangle;html=1;whiteSpace=wrap;collapsible=0;dropTarget=0;pointerEvents=0;fillColor=none;top=0;left=0;bottom=0;right=0;points=[[0,0.5],[1,0.5]];portConstraint=eastwest;" parent="5" vertex="1">
                    <mxGeometry width="570" height="40" as="geometry"/>
                </mxCell>
                <mxCell id="7" value="" style="shape=partialRectangle;html=1;whiteSpace=wrap;connectable=0;fillColor=none;top=0;left=0;bottom=0;right=0;overflow=hidden;pointerEvents=1;" parent="6" vertex="1">
                    <mxGeometry width="191" height="40" as="geometry">
                        <mxRectangle width="191" height="40" as="alternateBounds"/>
                    </mxGeometry>
                </mxCell>
                <mxCell id="8" value="RawNet3" style="shape=partialRectangle;html=1;whiteSpace=wrap;connectable=0;fillColor=none;top=0;left=0;bottom=0;right=0;overflow=hidden;pointerEvents=1;" parent="6" vertex="1">
                    <mxGeometry x="191" width="188" height="40" as="geometry">
                        <mxRectangle width="188" height="40" as="alternateBounds"/>
                    </mxGeometry>
                </mxCell>
                <mxCell id="9" value="ResNetSE34L" style="shape=partialRectangle;html=1;whiteSpace=wrap;connectable=0;fillColor=none;top=0;left=0;bottom=0;right=0;overflow=hidden;pointerEvents=1;" parent="6" vertex="1">
                    <mxGeometry x="379" width="191" height="40" as="geometry">
                        <mxRectangle width="191" height="40" as="alternateBounds"/>
                    </mxGeometry>
                </mxCell>
                <mxCell id="10" value="" style="shape=partialRectangle;html=1;whiteSpace=wrap;collapsible=0;dropTarget=0;pointerEvents=0;fillColor=none;top=0;left=0;bottom=0;right=0;points=[[0,0.5],[1,0.5]];portConstraint=eastwest;" parent="5" vertex="1">
                    <mxGeometry y="40" width="570" height="40" as="geometry"/>
                </mxCell>
                <mxCell id="11" value="&lt;span style=&quot;&quot;&gt;voxceleb&lt;/span&gt;" style="shape=partialRectangle;html=1;whiteSpace=wrap;connectable=0;fillColor=none;top=0;left=0;bottom=0;right=0;overflow=hidden;pointerEvents=1;" parent="10" vertex="1">
                    <mxGeometry width="191" height="40" as="geometry">
                        <mxRectangle width="191" height="40" as="alternateBounds"/>
                    </mxGeometry>
                </mxCell>
                <mxCell id="12" value="" style="shape=partialRectangle;html=1;whiteSpace=wrap;connectable=0;fillColor=none;top=0;left=0;bottom=0;right=0;overflow=hidden;pointerEvents=1;" parent="10" vertex="1">
                    <mxGeometry x="191" width="188" height="40" as="geometry">
                        <mxRectangle width="188" height="40" as="alternateBounds"/>
                    </mxGeometry>
                </mxCell>
                <mxCell id="13" value="" style="shape=partialRectangle;html=1;whiteSpace=wrap;connectable=0;fillColor=none;top=0;left=0;bottom=0;right=0;overflow=hidden;pointerEvents=1;" parent="10" vertex="1">
                    <mxGeometry x="379" width="191" height="40" as="geometry">
                        <mxRectangle width="191" height="40" as="alternateBounds"/>
                    </mxGeometry>
                </mxCell>
                <mxCell id="14" value="" style="shape=partialRectangle;html=1;whiteSpace=wrap;collapsible=0;dropTarget=0;pointerEvents=0;fillColor=none;top=0;left=0;bottom=0;right=0;points=[[0,0.5],[1,0.5]];portConstraint=eastwest;" parent="5" vertex="1">
                    <mxGeometry y="80" width="570" height="30" as="geometry"/>
                </mxCell>
                <mxCell id="15" value="directly adapted from VoxCeleb" style="shape=partialRectangle;html=1;whiteSpace=wrap;connectable=0;fillColor=none;top=0;left=0;bottom=0;right=0;overflow=hidden;pointerEvents=1;" parent="14" vertex="1">
                    <mxGeometry width="191" height="30" as="geometry">
                        <mxRectangle width="191" height="30" as="alternateBounds"/>
                    </mxGeometry>
                </mxCell>
                <mxCell id="16" value="" style="shape=partialRectangle;html=1;whiteSpace=wrap;connectable=0;fillColor=none;top=0;left=0;bottom=0;right=0;overflow=hidden;pointerEvents=1;" parent="14" vertex="1">
                    <mxGeometry x="191" width="188" height="30" as="geometry">
                        <mxRectangle width="188" height="30" as="alternateBounds"/>
                    </mxGeometry>
                </mxCell>
                <mxCell id="17" value="" style="shape=partialRectangle;html=1;whiteSpace=wrap;connectable=0;fillColor=none;top=0;left=0;bottom=0;right=0;overflow=hidden;pointerEvents=1;" parent="14" vertex="1">
                    <mxGeometry x="379" width="191" height="30" as="geometry">
                        <mxRectangle width="191" height="30" as="alternateBounds"/>
                    </mxGeometry>
                </mxCell>
                <mxCell id="0dK0Q-8Sw7L2qcEI5dPb-17" style="shape=partialRectangle;html=1;whiteSpace=wrap;collapsible=0;dropTarget=0;pointerEvents=0;fillColor=none;top=0;left=0;bottom=0;right=0;points=[[0,0.5],[1,0.5]];portConstraint=eastwest;" parent="5" vertex="1">
                    <mxGeometry y="110" width="570" height="40" as="geometry"/>
                </mxCell>
                <mxCell id="0dK0Q-8Sw7L2qcEI5dPb-18" value="SSDA" style="shape=partialRectangle;html=1;whiteSpace=wrap;connectable=0;fillColor=none;top=0;left=0;bottom=0;right=0;overflow=hidden;pointerEvents=1;" parent="0dK0Q-8Sw7L2qcEI5dPb-17" vertex="1">
                    <mxGeometry width="191" height="40" as="geometry">
                        <mxRectangle width="191" height="40" as="alternateBounds"/>
                    </mxGeometry>
                </mxCell>
                <mxCell id="0dK0Q-8Sw7L2qcEI5dPb-19" style="shape=partialRectangle;html=1;whiteSpace=wrap;connectable=0;fillColor=none;top=0;left=0;bottom=0;right=0;overflow=hidden;pointerEvents=1;" parent="0dK0Q-8Sw7L2qcEI5dPb-17" vertex="1">
                    <mxGeometry x="191" width="188" height="40" as="geometry">
                        <mxRectangle width="188" height="40" as="alternateBounds"/>
                    </mxGeometry>
                </mxCell>
                <mxCell id="0dK0Q-8Sw7L2qcEI5dPb-20" style="shape=partialRectangle;html=1;whiteSpace=wrap;connectable=0;fillColor=none;top=0;left=0;bottom=0;right=0;overflow=hidden;pointerEvents=1;" parent="0dK0Q-8Sw7L2qcEI5dPb-17" vertex="1">
                    <mxGeometry x="379" width="191" height="40" as="geometry">
                        <mxRectangle width="191" height="40" as="alternateBounds"/>
                    </mxGeometry>
                </mxCell>
                <mxCell id="PzZeh9o-vw1I045tUbKR-23" style="edgeStyle=orthogonalEdgeStyle;rounded=0;orthogonalLoop=1;jettySize=auto;html=1;exitX=0.5;exitY=1;exitDx=0;exitDy=0;entryX=0.5;entryY=0;entryDx=0;entryDy=0;fontSize=16;" parent="1" source="PzZeh9o-vw1I045tUbKR-18" target="PzZeh9o-vw1I045tUbKR-19" edge="1">
                    <mxGeometry relative="1" as="geometry"/>
                </mxCell>
                <mxCell id="PzZeh9o-vw1I045tUbKR-24" style="edgeStyle=orthogonalEdgeStyle;rounded=0;orthogonalLoop=1;jettySize=auto;html=1;exitX=0.5;exitY=1;exitDx=0;exitDy=0;entryX=0.577;entryY=-0.044;entryDx=0;entryDy=0;entryPerimeter=0;fontSize=16;" parent="1" source="PzZeh9o-vw1I045tUbKR-18" target="PzZeh9o-vw1I045tUbKR-21" edge="1">
                    <mxGeometry relative="1" as="geometry"/>
                </mxCell>
                <mxCell id="PzZeh9o-vw1I045tUbKR-25" style="edgeStyle=orthogonalEdgeStyle;rounded=0;orthogonalLoop=1;jettySize=auto;html=1;exitX=0.5;exitY=1;exitDx=0;exitDy=0;fontSize=16;" parent="1" source="PzZeh9o-vw1I045tUbKR-18" target="PzZeh9o-vw1I045tUbKR-22" edge="1">
                    <mxGeometry relative="1" as="geometry"/>
                </mxCell>
                <mxCell id="PzZeh9o-vw1I045tUbKR-18" value="&lt;font style=&quot;font-size: 16px;&quot;&gt;ModelTrainer&lt;br&gt;encoder&lt;/font&gt;" style="rounded=0;whiteSpace=wrap;html=1;" parent="1" vertex="1">
                    <mxGeometry x="-1010" y="1310" width="120" height="60" as="geometry"/>
                </mxCell>
                <mxCell id="PzZeh9o-vw1I045tUbKR-19" value="&lt;font style=&quot;font-size: 16px;&quot;&gt;JointTainer&lt;br&gt;sourceWithHead&lt;br&gt;targetWithHead&lt;br&gt;&lt;/font&gt;" style="rounded=0;whiteSpace=wrap;html=1;" parent="1" vertex="1">
                    <mxGeometry x="-1190" y="1420" width="140" height="60" as="geometry"/>
                </mxCell>
                <mxCell id="PzZeh9o-vw1I045tUbKR-21" value="&lt;font style=&quot;font-size: 16px;&quot;&gt;SSLTainer&lt;br&gt;model&lt;br&gt;&lt;/font&gt;" style="rounded=0;whiteSpace=wrap;html=1;" parent="1" vertex="1">
                    <mxGeometry x="-1030" y="1420" width="140" height="60" as="geometry"/>
                </mxCell>
                <mxCell id="PzZeh9o-vw1I045tUbKR-22" value="&lt;font style=&quot;font-size: 16px;&quot;&gt;SupTainer&lt;br&gt;model&lt;br&gt;&lt;/font&gt;" style="rounded=0;whiteSpace=wrap;html=1;" parent="1" vertex="1">
                    <mxGeometry x="-827" y="1420" width="140" height="60" as="geometry"/>
                </mxCell>
                <mxCell id="18" value="subConLoss&lt;br&gt;The value of this loss is determined by the number of classes inside a batch&lt;br&gt;more the classes, larger the loss&amp;nbsp;&lt;br&gt;That's why it is higher for simSLR&lt;br&gt;Because in simSLR we assume all the samples are from different classes&lt;br&gt;question: what role does 'view' play?" style="text;html=1;align=center;verticalAlign=middle;resizable=0;points=[];autosize=1;strokeColor=none;fillColor=none;" vertex="1" parent="1">
                    <mxGeometry x="-1600" y="170" width="420" height="90" as="geometry"/>
                </mxCell>
            </root>
        </mxGraphModel>
    </diagram>
</mxfile>